<svg width="228" height="89" viewBox="0 0 228 89" fill="none" xmlns="http://www.w3.org/2000/svg">
<rect x="6" y="7" width="203" height="82" fill="white"/>
<rect x="6" y="7" width="203" height="82" fill="white"/>
<rect width="195" height="79" fill="white"/>
<rect width="195" height="79" fill="#94EA9D"/>
<path d="M13.512 23.872L12.816 26.32H13.536C15.584 26.32 17.144 26.72 18.216 27.52C19.288 28.32 19.824 29.48 19.824 31C19.824 32.28 19.472 33.4 18.768 34.36C18.08 35.32 17.12 36.056 15.888 36.568C14.656 37.08 13.256 37.336 11.688 37.336C10.456 37.336 9.296 37.184 8.208 36.88C7.12 36.56 6.176 36.096 5.376 35.488L7.584 32.104C8.176 32.552 8.856 32.896 9.624 33.136C10.408 33.376 11.2 33.496 12 33.496C12.96 33.496 13.704 33.328 14.232 32.992C14.76 32.64 15.024 32.16 15.024 31.552C15.024 31.056 14.808 30.68 14.376 30.424C13.96 30.152 13.28 30.016 12.336 30.016H7.512L10.32 20.2H21L20.256 23.872H13.512ZM47.2665 20.2L43.9065 37H39.9945L34.4505 27.784L32.6025 37H27.9465L31.3065 20.2H35.2185L40.7865 29.392L42.6105 20.2H47.2665ZM54.2904 37.216C52.9144 37.216 51.7144 36.976 50.6904 36.496C49.6664 36 48.8744 35.304 48.3144 34.408C47.7544 33.512 47.4744 32.472 47.4744 31.288C47.4744 29.864 47.8184 28.584 48.5064 27.448C49.1944 26.312 50.1464 25.416 51.3624 24.76C52.5784 24.104 53.9464 23.776 55.4664 23.776C56.8424 23.776 58.0424 24.024 59.0664 24.52C60.0904 25 60.8824 25.688 61.4424 26.584C62.0024 27.464 62.2824 28.496 62.2824 29.68C62.2824 31.104 61.9384 32.392 61.2504 33.544C60.5624 34.68 59.6104 35.576 58.3944 36.232C57.1944 36.888 55.8264 37.216 54.2904 37.216ZM54.5544 33.544C55.4664 33.544 56.2104 33.208 56.7864 32.536C57.3624 31.864 57.6504 30.992 57.6504 29.92C57.6504 29.152 57.4344 28.544 57.0024 28.096C56.5704 27.648 55.9704 27.424 55.2024 27.424C54.2904 27.424 53.5464 27.76 52.9704 28.432C52.3944 29.104 52.1064 29.984 52.1064 31.072C52.1064 31.84 52.3224 32.448 52.7544 32.896C53.1864 33.328 53.7864 33.544 54.5544 33.544ZM82.2514 23.776C83.6274 23.776 84.7314 24.16 85.5634 24.928C86.3954 25.696 86.8114 26.784 86.8114 28.192C86.8114 28.72 86.7554 29.256 86.6434 29.8L85.2274 37H80.6674L82.0114 30.28C82.0754 29.976 82.1074 29.672 82.1074 29.368C82.1074 28.792 81.9634 28.36 81.6754 28.072C81.4034 27.784 81.0034 27.64 80.4754 27.64C79.0194 27.64 78.0994 28.576 77.7154 30.448L76.3954 37H71.8354L73.2034 30.28C73.2674 30.008 73.2994 29.712 73.2994 29.392C73.2994 28.816 73.1554 28.384 72.8674 28.096C72.5954 27.792 72.1954 27.64 71.6674 27.64C70.1954 27.64 69.2674 28.592 68.8834 30.496L67.5874 37H63.0274L65.6194 23.992H69.9394L69.6754 25.312C70.7474 24.288 72.0434 23.776 73.5634 23.776C74.4274 23.776 75.2034 23.96 75.8914 24.328C76.5794 24.68 77.1074 25.2 77.4754 25.888C78.0834 25.2 78.7874 24.68 79.5874 24.328C80.4034 23.96 81.2914 23.776 82.2514 23.776ZM90.6975 23.992H95.2335L92.6415 37H88.1055L90.6975 23.992ZM93.6015 22.552C92.8175 22.552 92.1855 22.336 91.7055 21.904C91.2255 21.472 90.9855 20.936 90.9855 20.296C90.9855 19.544 91.2495 18.928 91.7775 18.448C92.3215 17.952 93.0335 17.704 93.9135 17.704C94.7135 17.704 95.3535 17.912 95.8335 18.328C96.3135 18.728 96.5535 19.248 96.5535 19.888C96.5535 20.672 96.2815 21.312 95.7375 21.808C95.1935 22.304 94.4815 22.552 93.6015 22.552ZM106.31 23.776C107.734 23.776 108.87 24.16 109.718 24.928C110.582 25.68 111.014 26.768 111.014 28.192C111.014 28.72 110.958 29.256 110.846 29.8L109.406 37H104.846L106.19 30.232C106.254 29.96 106.286 29.672 106.286 29.368C106.286 28.216 105.686 27.64 104.486 27.64C103.686 27.64 103.03 27.888 102.518 28.384C102.006 28.864 101.646 29.592 101.438 30.568L100.142 37H95.5821L98.1741 23.992H102.494L102.23 25.336C102.79 24.808 103.422 24.416 104.126 24.16C104.83 23.904 105.558 23.776 106.31 23.776ZM128.825 23.992L126.233 37H121.913L122.177 35.776C121.137 36.736 119.881 37.216 118.409 37.216C117.449 37.216 116.545 36.984 115.697 36.52C114.865 36.04 114.193 35.352 113.681 34.456C113.169 33.56 112.913 32.504 112.913 31.288C112.913 29.88 113.225 28.608 113.849 27.472C114.489 26.32 115.345 25.416 116.417 24.76C117.505 24.104 118.689 23.776 119.969 23.776C121.857 23.776 123.185 24.368 123.953 25.552L124.265 23.992H128.825ZM119.993 33.544C120.905 33.544 121.649 33.208 122.225 32.536C122.801 31.864 123.089 30.992 123.089 29.92C123.089 29.152 122.865 28.544 122.417 28.096C121.985 27.648 121.385 27.424 120.617 27.424C119.705 27.424 118.961 27.76 118.385 28.432C117.809 29.104 117.521 29.984 117.521 31.072C117.521 31.84 117.737 32.448 118.169 32.896C118.617 33.328 119.225 33.544 119.993 33.544ZM135.216 32.152C135.184 32.376 135.168 32.52 135.168 32.584C135.168 33.32 135.568 33.688 136.368 33.688C136.8 33.688 137.256 33.56 137.736 33.304L138.312 36.448C137.416 36.96 136.288 37.216 134.928 37.216C133.584 37.216 132.512 36.88 131.712 36.208C130.928 35.536 130.536 34.6 130.536 33.4C130.536 32.936 130.576 32.528 130.656 32.176L131.52 27.88H129.6L130.296 24.472H132.192L132.864 21.088H137.424L136.752 24.472H139.704L139.032 27.88H136.08L135.216 32.152ZM142.494 23.992H147.03L144.438 37H139.902L142.494 23.992ZM145.398 22.552C144.614 22.552 143.982 22.336 143.502 21.904C143.022 21.472 142.782 20.936 142.782 20.296C142.782 19.544 143.046 18.928 143.574 18.448C144.118 17.952 144.83 17.704 145.71 17.704C146.51 17.704 147.15 17.912 147.63 18.328C148.11 18.728 148.35 19.248 148.35 19.888C148.35 20.672 148.078 21.312 147.534 21.808C146.99 22.304 146.278 22.552 145.398 22.552ZM154.603 37.216C153.227 37.216 152.027 36.976 151.003 36.496C149.979 36 149.187 35.304 148.627 34.408C148.067 33.512 147.787 32.472 147.787 31.288C147.787 29.864 148.131 28.584 148.819 27.448C149.507 26.312 150.459 25.416 151.675 24.76C152.891 24.104 154.259 23.776 155.779 23.776C157.155 23.776 158.355 24.024 159.379 24.52C160.403 25 161.195 25.688 161.755 26.584C162.315 27.464 162.595 28.496 162.595 29.68C162.595 31.104 162.251 32.392 161.563 33.544C160.875 34.68 159.923 35.576 158.707 36.232C157.507 36.888 156.139 37.216 154.603 37.216ZM154.867 33.544C155.779 33.544 156.523 33.208 157.099 32.536C157.675 31.864 157.963 30.992 157.963 29.92C157.963 29.152 157.747 28.544 157.315 28.096C156.883 27.648 156.283 27.424 155.515 27.424C154.603 27.424 153.859 27.76 153.283 28.432C152.707 29.104 152.419 29.984 152.419 31.072C152.419 31.84 152.635 32.448 153.067 32.896C153.499 33.328 154.099 33.544 154.867 33.544ZM174.068 23.776C175.492 23.776 176.628 24.16 177.476 24.928C178.34 25.68 178.772 26.768 178.772 28.192C178.772 28.72 178.716 29.256 178.604 29.8L177.164 37H172.604L173.948 30.232C174.012 29.96 174.044 29.672 174.044 29.368C174.044 28.216 173.444 27.64 172.244 27.64C171.444 27.64 170.788 27.888 170.276 28.384C169.764 28.864 169.404 29.592 169.196 30.568L167.9 37H163.34L165.932 23.992H170.252L169.988 25.336C170.548 24.808 171.18 24.416 171.884 24.16C172.588 23.904 173.316 23.776 174.068 23.776ZM185.139 37.216C184.019 37.216 182.939 37.096 181.899 36.856C180.875 36.616 180.075 36.312 179.499 35.944L181.155 32.752C181.747 33.12 182.451 33.416 183.267 33.64C184.083 33.848 184.883 33.952 185.667 33.952C187.059 33.952 187.755 33.64 187.755 33.016C187.755 32.76 187.587 32.576 187.251 32.464C186.931 32.336 186.411 32.216 185.691 32.104C184.731 31.928 183.939 31.744 183.315 31.552C182.707 31.344 182.171 31 181.707 30.52C181.243 30.04 181.011 29.368 181.011 28.504C181.011 27 181.651 25.84 182.931 25.024C184.227 24.192 185.899 23.776 187.947 23.776C188.875 23.776 189.771 23.872 190.635 24.064C191.499 24.24 192.251 24.488 192.891 24.808L191.283 28C190.195 27.344 188.907 27.016 187.419 27.016C186.715 27.016 186.187 27.112 185.835 27.304C185.499 27.48 185.331 27.712 185.331 28C185.331 28.256 185.491 28.448 185.811 28.576C186.147 28.688 186.691 28.816 187.443 28.96C188.371 29.12 189.139 29.304 189.747 29.512C190.371 29.72 190.907 30.064 191.355 30.544C191.819 31.024 192.051 31.68 192.051 32.512C192.051 34.016 191.403 35.176 190.107 35.992C188.811 36.808 187.155 37.216 185.139 37.216ZM16.848 49.2C19.024 49.2 20.704 49.672 21.888 50.616C23.072 51.56 23.664 52.888 23.664 54.6C23.664 56.008 23.32 57.24 22.632 58.296C21.96 59.352 20.992 60.168 19.728 60.744C18.48 61.32 17.024 61.608 15.36 61.608H12L11.136 66H6.384L9.744 49.2H16.848ZM15.576 57.864C16.632 57.864 17.44 57.616 18 57.12C18.576 56.624 18.864 55.92 18.864 55.008C18.864 54.32 18.632 53.808 18.168 53.472C17.72 53.12 17.072 52.944 16.224 52.944H13.728L12.744 57.864H15.576ZM26.3381 52.992H30.8741L28.2821 66H23.7461L26.3381 52.992ZM29.2421 51.552C28.4581 51.552 27.8261 51.336 27.3461 50.904C26.8661 50.472 26.6261 49.936 26.6261 49.296C26.6261 48.544 26.8901 47.928 27.4181 47.448C27.9621 46.952 28.6741 46.704 29.5541 46.704C30.3541 46.704 30.9941 46.912 31.4741 47.328C31.9541 47.728 32.1941 48.248 32.1941 48.888C32.1941 49.672 31.9221 50.312 31.3781 50.808C30.8341 51.304 30.1221 51.552 29.2421 51.552ZM38.4947 66.216C37.1187 66.216 35.9107 65.976 34.8707 65.496C33.8467 65 33.0467 64.304 32.4707 63.408C31.9107 62.512 31.6307 61.472 31.6307 60.288C31.6307 58.864 31.9747 57.584 32.6627 56.448C33.3507 55.312 34.3107 54.416 35.5427 53.76C36.7747 53.104 38.1587 52.776 39.6947 52.776C41.1667 52.776 42.4387 53.088 43.5107 53.712C44.5827 54.32 45.3667 55.184 45.8627 56.304L41.9747 58.152C41.4947 57 40.6547 56.424 39.4547 56.424C38.5267 56.424 37.7587 56.76 37.1507 57.432C36.5587 58.104 36.2627 58.968 36.2627 60.024C36.2627 60.792 36.4787 61.408 36.9107 61.872C37.3587 62.32 37.9907 62.544 38.8067 62.544C39.4147 62.544 39.9507 62.408 40.4147 62.136C40.8787 61.864 41.2787 61.432 41.6147 60.84L44.9507 62.856C44.3267 63.912 43.4467 64.736 42.3107 65.328C41.1907 65.92 39.9187 66.216 38.4947 66.216ZM56.2213 58.752L60.5893 66H55.2613L52.5973 61.56L50.7253 63.192L50.1733 66H45.6133L49.1653 48.192H53.7253L51.8773 57.432L57.1333 52.992H62.8933L56.2213 58.752ZM75.7472 58.488C75.7472 59.112 75.6592 59.824 75.4832 60.624H65.9312C66.0912 62.032 67.0752 62.736 68.8832 62.736C69.4592 62.736 70.0192 62.648 70.5632 62.472C71.1072 62.296 71.5952 62.032 72.0272 61.68L73.9232 64.536C72.4032 65.656 70.5552 66.216 68.3792 66.216C67.0032 66.216 65.7872 65.976 64.7312 65.496C63.6912 65 62.8832 64.312 62.3072 63.432C61.7472 62.536 61.4672 61.488 61.4672 60.288C61.4672 58.864 61.7952 57.584 62.4512 56.448C63.1232 55.296 64.0512 54.4 65.2352 53.76C66.4352 53.104 67.8032 52.776 69.3392 52.776C70.6352 52.776 71.7632 53.016 72.7232 53.496C73.6992 53.96 74.4432 54.624 74.9552 55.488C75.4832 56.352 75.7472 57.352 75.7472 58.488ZM69.1232 56.016C68.3872 56.016 67.7712 56.216 67.2752 56.616C66.7792 57 66.4192 57.536 66.1952 58.224H71.5472C71.5632 57.536 71.3472 57 70.8992 56.616C70.4512 56.216 69.8592 56.016 69.1232 56.016ZM93.7159 48.192L90.1639 66H85.8439L86.1079 64.728C85.0679 65.72 83.8119 66.216 82.3399 66.216C81.3799 66.216 80.4759 65.984 79.6279 65.52C78.7959 65.04 78.1239 64.352 77.6119 63.456C77.0999 62.56 76.8439 61.504 76.8439 60.288C76.8439 58.88 77.1559 57.608 77.7799 56.472C78.4199 55.32 79.2839 54.416 80.3719 53.76C81.4599 53.104 82.6439 52.776 83.9239 52.776C85.7799 52.776 87.0999 53.352 87.8839 54.504L89.1559 48.192H93.7159ZM83.9239 62.544C84.8359 62.544 85.5799 62.208 86.1559 61.536C86.7319 60.864 87.0199 59.992 87.0199 58.92C87.0199 58.152 86.8039 57.544 86.3719 57.096C85.9399 56.648 85.3399 56.424 84.5719 56.424C83.6599 56.424 82.9159 56.76 82.3399 57.432C81.7639 58.104 81.4759 58.984 81.4759 60.072C81.4759 60.84 81.6919 61.448 82.1239 61.896C82.5559 62.328 83.1559 62.544 83.9239 62.544ZM95.8817 49.2H101.33L98.2817 59.88H94.6577L95.8817 49.2ZM95.5697 66.216C94.8177 66.216 94.1937 65.992 93.6977 65.544C93.2177 65.096 92.9777 64.544 92.9777 63.888C92.9777 63.12 93.2497 62.488 93.7937 61.992C94.3377 61.48 95.0177 61.224 95.8337 61.224C96.6017 61.224 97.2257 61.44 97.7057 61.872C98.1857 62.304 98.4257 62.848 98.4257 63.504C98.4257 64.256 98.1457 64.896 97.5857 65.424C97.0417 65.952 96.3697 66.216 95.5697 66.216Z" fill="white"/>
</svg>
