<svg width="253" height="39" viewBox="0 0 253 39" fill="none" xmlns="http://www.w3.org/2000/svg">
<rect y="7" width="177" height="32" fill="white"/>
<rect y="7" width="177" height="32" fill="#94EA9D"/>
<rect x="8" width="177" height="32" fill="white"/>
<rect x="8" width="177" height="32" fill="white"/>
<path d="M33.704 10.2L30.344 27H26.432L20.888 17.784L19.04 27H14.384L17.744 10.2H21.656L27.224 19.392L29.048 10.2H33.704ZM40.7279 27.216C39.3519 27.216 38.1519 26.976 37.1279 26.496C36.1039 26 35.3119 25.304 34.7519 24.408C34.1919 23.512 33.9119 22.472 33.9119 21.288C33.9119 19.864 34.2559 18.584 34.9439 17.448C35.6319 16.312 36.5839 15.416 37.7999 14.76C39.0159 14.104 40.3839 13.776 41.9039 13.776C43.2799 13.776 44.4799 14.024 45.5039 14.52C46.5279 15 47.3199 15.688 47.8799 16.584C48.4399 17.464 48.7199 18.496 48.7199 19.68C48.7199 21.104 48.3759 22.392 47.6879 23.544C46.9999 24.68 46.0479 25.576 44.8319 26.232C43.6319 26.888 42.2639 27.216 40.7279 27.216ZM40.9919 23.544C41.9039 23.544 42.6479 23.208 43.2239 22.536C43.7999 21.864 44.0879 20.992 44.0879 19.92C44.0879 19.152 43.8719 18.544 43.4399 18.096C43.0079 17.648 42.4079 17.424 41.6399 17.424C40.7279 17.424 39.9839 17.76 39.4079 18.432C38.8319 19.104 38.5439 19.984 38.5439 21.072C38.5439 21.84 38.7599 22.448 39.1919 22.896C39.6239 23.328 40.2239 23.544 40.9919 23.544ZM68.6889 13.776C70.0649 13.776 71.1689 14.16 72.0009 14.928C72.8329 15.696 73.2489 16.784 73.2489 18.192C73.2489 18.72 73.1929 19.256 73.0809 19.8L71.6649 27H67.1049L68.4489 20.28C68.5129 19.976 68.5449 19.672 68.5449 19.368C68.5449 18.792 68.4009 18.36 68.1129 18.072C67.8409 17.784 67.4409 17.64 66.9129 17.64C65.4569 17.64 64.5369 18.576 64.1529 20.448L62.8329 27H58.2729L59.6409 20.28C59.7049 20.008 59.7369 19.712 59.7369 19.392C59.7369 18.816 59.5929 18.384 59.3049 18.096C59.0329 17.792 58.6329 17.64 58.1049 17.64C56.6329 17.64 55.7049 18.592 55.3209 20.496L54.0249 27H49.4649L52.0569 13.992H56.3769L56.1129 15.312C57.1849 14.288 58.4809 13.776 60.0009 13.776C60.8649 13.776 61.6409 13.96 62.3289 14.328C63.0169 14.68 63.5449 15.2 63.9129 15.888C64.5209 15.2 65.2249 14.68 66.0249 14.328C66.8409 13.96 67.7289 13.776 68.6889 13.776ZM77.135 13.992H81.671L79.079 27H74.543L77.135 13.992ZM80.039 12.552C79.255 12.552 78.623 12.336 78.143 11.904C77.663 11.472 77.423 10.936 77.423 10.296C77.423 9.544 77.687 8.928 78.215 8.448C78.759 7.952 79.471 7.704 80.351 7.704C81.151 7.704 81.791 7.912 82.271 8.328C82.751 8.728 82.991 9.248 82.991 9.888C82.991 10.672 82.719 11.312 82.175 11.808C81.631 12.304 80.919 12.552 80.039 12.552ZM92.7476 13.776C94.1716 13.776 95.3076 14.16 96.1556 14.928C97.0196 15.68 97.4516 16.768 97.4516 18.192C97.4516 18.72 97.3956 19.256 97.2836 19.8L95.8436 27H91.2836L92.6276 20.232C92.6916 19.96 92.7236 19.672 92.7236 19.368C92.7236 18.216 92.1236 17.64 90.9236 17.64C90.1236 17.64 89.4676 17.888 88.9556 18.384C88.4436 18.864 88.0836 19.592 87.8756 20.568L86.5796 27H82.0196L84.6116 13.992H88.9316L88.6676 15.336C89.2276 14.808 89.8596 14.416 90.5636 14.16C91.2676 13.904 91.9956 13.776 92.7476 13.776ZM115.262 13.992L112.67 27H108.35L108.614 25.776C107.574 26.736 106.318 27.216 104.846 27.216C103.886 27.216 102.982 26.984 102.134 26.52C101.302 26.04 100.63 25.352 100.118 24.456C99.606 23.56 99.35 22.504 99.35 21.288C99.35 19.88 99.662 18.608 100.286 17.472C100.926 16.32 101.782 15.416 102.854 14.76C103.942 14.104 105.126 13.776 106.406 13.776C108.294 13.776 109.622 14.368 110.39 15.552L110.702 13.992H115.262ZM106.43 23.544C107.342 23.544 108.086 23.208 108.662 22.536C109.238 21.864 109.526 20.992 109.526 19.92C109.526 19.152 109.302 18.544 108.854 18.096C108.422 17.648 107.822 17.424 107.054 17.424C106.142 17.424 105.398 17.76 104.822 18.432C104.246 19.104 103.958 19.984 103.958 21.072C103.958 21.84 104.174 22.448 104.606 22.896C105.054 23.328 105.662 23.544 106.43 23.544ZM121.654 22.152C121.622 22.376 121.605 22.52 121.605 22.584C121.605 23.32 122.006 23.688 122.806 23.688C123.238 23.688 123.694 23.56 124.174 23.304L124.75 26.448C123.854 26.96 122.726 27.216 121.366 27.216C120.022 27.216 118.95 26.88 118.15 26.208C117.366 25.536 116.974 24.6 116.974 23.4C116.974 22.936 117.014 22.528 117.094 22.176L117.958 17.88H116.038L116.734 14.472H118.63L119.302 11.088H123.862L123.19 14.472H126.142L125.47 17.88H122.518L121.654 22.152ZM128.932 13.992H133.468L130.876 27H126.34L128.932 13.992ZM131.836 12.552C131.052 12.552 130.42 12.336 129.94 11.904C129.46 11.472 129.22 10.936 129.22 10.296C129.22 9.544 129.484 8.928 130.012 8.448C130.556 7.952 131.268 7.704 132.148 7.704C132.948 7.704 133.588 7.912 134.068 8.328C134.548 8.728 134.788 9.248 134.788 9.888C134.788 10.672 134.516 11.312 133.972 11.808C133.428 12.304 132.716 12.552 131.836 12.552ZM141.04 27.216C139.664 27.216 138.464 26.976 137.44 26.496C136.416 26 135.624 25.304 135.064 24.408C134.504 23.512 134.224 22.472 134.224 21.288C134.224 19.864 134.568 18.584 135.256 17.448C135.944 16.312 136.896 15.416 138.112 14.76C139.328 14.104 140.696 13.776 142.216 13.776C143.592 13.776 144.792 14.024 145.816 14.52C146.84 15 147.632 15.688 148.192 16.584C148.752 17.464 149.032 18.496 149.032 19.68C149.032 21.104 148.688 22.392 148 23.544C147.312 24.68 146.36 25.576 145.144 26.232C143.944 26.888 142.576 27.216 141.04 27.216ZM141.304 23.544C142.216 23.544 142.96 23.208 143.536 22.536C144.112 21.864 144.4 20.992 144.4 19.92C144.4 19.152 144.184 18.544 143.752 18.096C143.32 17.648 142.72 17.424 141.952 17.424C141.04 17.424 140.296 17.76 139.72 18.432C139.144 19.104 138.856 19.984 138.856 21.072C138.856 21.84 139.072 22.448 139.504 22.896C139.936 23.328 140.536 23.544 141.304 23.544ZM160.505 13.776C161.929 13.776 163.065 14.16 163.913 14.928C164.777 15.68 165.209 16.768 165.209 18.192C165.209 18.72 165.153 19.256 165.041 19.8L163.601 27H159.041L160.385 20.232C160.449 19.96 160.481 19.672 160.481 19.368C160.481 18.216 159.881 17.64 158.681 17.64C157.881 17.64 157.225 17.888 156.713 18.384C156.201 18.864 155.841 19.592 155.633 20.568L154.337 27H149.777L152.369 13.992H156.689L156.425 15.336C156.985 14.808 157.617 14.416 158.321 14.16C159.025 13.904 159.753 13.776 160.505 13.776ZM171.576 27.216C170.456 27.216 169.376 27.096 168.336 26.856C167.312 26.616 166.512 26.312 165.936 25.944L167.592 22.752C168.184 23.12 168.888 23.416 169.704 23.64C170.52 23.848 171.32 23.952 172.104 23.952C173.496 23.952 174.192 23.64 174.192 23.016C174.192 22.76 174.024 22.576 173.688 22.464C173.368 22.336 172.848 22.216 172.128 22.104C171.168 21.928 170.376 21.744 169.752 21.552C169.144 21.344 168.608 21 168.144 20.52C167.68 20.04 167.448 19.368 167.448 18.504C167.448 17 168.088 15.84 169.368 15.024C170.664 14.192 172.336 13.776 174.384 13.776C175.312 13.776 176.208 13.872 177.072 14.064C177.936 14.24 178.688 14.488 179.328 14.808L177.72 18C176.632 17.344 175.344 17.016 173.856 17.016C173.152 17.016 172.624 17.112 172.272 17.304C171.936 17.48 171.768 17.712 171.768 18C171.768 18.256 171.928 18.448 172.248 18.576C172.584 18.688 173.128 18.816 173.88 18.96C174.808 19.12 175.576 19.304 176.184 19.512C176.808 19.72 177.344 20.064 177.792 20.544C178.256 21.024 178.488 21.68 178.488 22.512C178.488 24.016 177.84 25.176 176.544 25.992C175.248 26.808 173.592 27.216 171.576 27.216Z" fill="#A1E49B"/>
</svg>
